<svg width="12" height="14" viewBox="0 0 12 14" fill="none" xmlns="http://www.w3.org/2000/svg">
<path d="M11.4137 10.9312C11.119 10.2331 10.6913 9.59891 10.1544 9.06406C9.6191 8.52767 8.98503 8.10001 8.28717 7.80469C8.28092 7.80156 8.27467 7.8 8.26842 7.79688C9.24186 7.09375 9.87467 5.94844 9.87467 4.65625C9.87467 2.51562 8.1403 0.78125 5.99967 0.78125C3.85905 0.78125 2.12467 2.51562 2.12467 4.65625C2.12467 5.94844 2.75749 7.09375 3.73092 7.79844C3.72467 7.80156 3.71842 7.80312 3.71217 7.80625C3.01217 8.10156 2.38405 8.525 1.84499 9.06563C1.30859 9.60089 0.88093 10.235 0.58561 10.9328C0.295489 11.616 0.13902 12.3485 0.124673 13.0906C0.124256 13.1073 0.127181 13.1239 0.133276 13.1394C0.139371 13.1549 0.148512 13.1691 0.160161 13.181C0.17181 13.193 0.185731 13.2025 0.201104 13.2089C0.216477 13.2154 0.232991 13.2188 0.249673 13.2188H1.18717C1.25592 13.2188 1.31061 13.1641 1.31217 13.0969C1.34342 11.8906 1.8278 10.7609 2.68405 9.90469C3.56999 9.01875 4.74655 8.53125 5.99967 8.53125C7.2528 8.53125 8.42936 9.01875 9.3153 9.90469C10.1715 10.7609 10.6559 11.8906 10.6872 13.0969C10.6887 13.1656 10.7434 13.2188 10.8122 13.2188H11.7497C11.7664 13.2188 11.7829 13.2154 11.7982 13.2089C11.8136 13.2025 11.8275 13.193 11.8392 13.181C11.8508 13.1691 11.86 13.1549 11.8661 13.1394C11.8722 13.1239 11.8751 13.1073 11.8747 13.0906C11.859 12.3438 11.7044 11.6172 11.4137 10.9312ZM5.99967 7.34375C5.28249 7.34375 4.60749 7.06406 4.09967 6.55625C3.59186 6.04844 3.31217 5.37344 3.31217 4.65625C3.31217 3.93906 3.59186 3.26406 4.09967 2.75625C4.60749 2.24844 5.28249 1.96875 5.99967 1.96875C6.71686 1.96875 7.39186 2.24844 7.89967 2.75625C8.40749 3.26406 8.68717 3.93906 8.68717 4.65625C8.68717 5.37344 8.40749 6.04844 7.89967 6.55625C7.39186 7.06406 6.71686 7.34375 5.99967 7.34375Z" fill="black" fill-opacity="0.45"/>
</svg>
